<svg xmlns="http://www.w3.org/2000/svg" aria-labelledby="title desc" role="img" viewBox="0 0 1024 1024"><title id="title">Deep Obsidian MCP logo</title><desc id="desc">A faceted obsidian crystal with an amber knowledge core and connected graph nodes.</desc><defs><radialGradient id="background" cx="50%" cy="46%" r="72%"><stop offset="0%" stop-color="#15172a"/><stop offset="58%" stop-color="#0b0d18"/><stop offset="100%" stop-color="#030407"/></radialGradient><linearGradient id="edgeViolet" x1="275" x2="781" y1="110" y2="920" gradientUnits="userSpaceOnUse"><stop offset="0%" stop-color="#f0edff"/><stop offset="19%" stop-color="#aaa2ff"/><stop offset="48%" stop-color="#5b63ff"/><stop offset="78%" stop-color="#2e50d8"/><stop offset="100%" stop-color="#09112d"/></linearGradient><linearGradient id="edgeBlue" x1="270" x2="835" y1="740" y2="345" gradientUnits="userSpaceOnUse"><stop offset="0%" stop-color="#8b55ff"/><stop offset="47%" stop-color="#9aa3ff"/><stop offset="100%" stop-color="#d9e0ff"/></linearGradient><linearGradient id="facetLeft" x1="260" x2="554" y1="174" y2="869" gradientUnits="userSpaceOnUse"><stop offset="0%" stop-color="#d8d2ff"/><stop offset="18%" stop-color="#5d56b9"/><stop offset="45%" stop-color="#080a18"/><stop offset="76%" stop-color="#111331"/><stop offset="100%" stop-color="#050714"/></linearGradient><linearGradient id="facetRight" x1="642" x2="808" y1="114" y2="826" gradientUnits="userSpaceOnUse"><stop offset="0%" stop-color="#1d2048"/><stop offset="32%" stop-color="#050711"/><stop offset="63%" stop-color="#0f1433"/><stop offset="100%" stop-color="#243a8a"/></linearGradient><radialGradient id="amberCore" cx="50%" cy="50%" r="55%"><stop offset="0%" stop-color="#fff9c7"/><stop offset="30%" stop-color="#ffd760"/><stop offset="68%" stop-color="#ff9e2e"/><stop offset="100%" stop-color="#6c2d0a"/></radialGradient><radialGradient id="violetNode" cx="35%" cy="30%" r="68%"><stop offset="0%" stop-color="#f4f0ff"/><stop offset="42%" stop-color="#8176ff"/><stop offset="100%" stop-color="#231a76"/></radialGradient><radialGradient id="amberNode" cx="35%" cy="30%" r="68%"><stop offset="0%" stop-color="#fff6bd"/><stop offset="48%" stop-color="#ffb33b"/><stop offset="100%" stop-color="#7a330c"/></radialGradient><filter id="softShadow" width="150%" height="150%" x="-25%" y="-25%"><feDropShadow dx="0" dy="28" flood-color="#000" flood-opacity=".58" stdDeviation="32"/></filter><filter id="violetGlow" width="170%" height="170%" x="-35%" y="-35%"><feGaussianBlur result="blur" stdDeviation="8"/><feColorMatrix in="blur" type="matrix" values="0.40 0 0 0 0.18 0 0.36 0 0 0.20 0 0 0.98 0 0.95 0 0 0 0.72 0"/><feMerge><feMergeNode/><feMergeNode in="SourceGraphic"/></feMerge></filter><filter id="amberGlow" width="280%" height="280%" x="-90%" y="-90%"><feGaussianBlur result="blur" stdDeviation="18"/><feColorMatrix in="blur" type="matrix" values="1 0 0 0 0.97 0 0.58 0 0 0.34 0 0 0.10 0 0.02 0 0 0 0.88 0"/><feMerge><feMergeNode/><feMergeNode in="SourceGraphic"/></feMerge></filter></defs><rect width="1024" height="1024" fill="url(#background)" rx="178"/><circle cx="512" cy="540" r="380" fill="#14183a" opacity=".12"/><g filter="url(#softShadow)"><path fill="#03050b" d="M516 78 792 388 848 553 670 916 517 988 360 821 238 532 362 268Z"/><g opacity=".98"><path fill="#f0edff" d="M516 78 435 315 362 268Z" opacity=".78"/><path fill="#17194a" d="M516 78 618 303 435 315Z"/><path fill="#060814" d="M516 78 792 388 618 303Z"/><path fill="url(#facetLeft)" d="M362 268 238 532 350 694 435 315Z"/><path fill="#04060f" d="M435 315 618 303 547 538 350 694Z"/><path fill="url(#facetRight)" d="M618 303 792 388 848 553 547 538Z"/><path fill="#0f1230" d="M238 532 360 821 350 694Z"/><path fill="#050711" d="M350 694 547 538 517 988 360 821Z"/><path fill="#060813" d="M547 538 848 553 670 916 517 988Z"/><path fill="#15184b" d="M350 694 517 988 489 760Z" opacity=".78"/><path fill="#1d2b72" d="M547 538 670 916 647 710Z" opacity=".64"/><path fill="#2d2870" d="M435 315 350 694 300 493Z" opacity=".5"/><path fill="#25256b" d="M618 303 716 459 547 538Z" opacity=".58"/><path fill="#6965c9" d="M362 268 435 315 300 493Z" opacity=".42"/><path fill="#02050b" d="M547 538 716 459 820 548Z" opacity=".55"/><path fill="#0b0f2b" d="M517 988 547 538 588 780Z" opacity=".78"/></g><g fill="none" stroke-linecap="round" stroke-linejoin="round" opacity=".22"><path stroke="#9f98ff" stroke-width="1.8" d="M382 498 512 548 620 484 706 555"/><path stroke="#7874e8" stroke-width="1.5" d="M512 548 406 611M512 548 476 692" opacity=".58"/><path stroke="#3943b9" stroke-width="1.5" d="M594 641 650 741M476 692 483 801" opacity=".46"/><path stroke="#9f6129" stroke-width="1.4" d="M476 692 394 754" opacity=".38"/><path stroke="#ba792f" stroke-width="1.5" d="M594 641 655 589" opacity=".42"/></g><g opacity=".55"><path fill="#02040b" d="M435 315 618 303 547 538 350 694Z" opacity=".42"/><path fill="#02060c" d="M547 538 848 553 670 916 588 780Z" opacity=".5"/><path fill="#080b25" d="M350 694 517 988 489 760Z" opacity=".48"/></g><g opacity=".36"><circle cx="382" cy="498" r="6" fill="url(#violetNode)"/><circle cx="406" cy="611" r="7" fill="url(#violetNode)"/><circle cx="620" cy="484" r="6" fill="url(#violetNode)"/><circle cx="706" cy="555" r="5" fill="url(#violetNode)"/></g><g fill="none" stroke-linecap="round" stroke-linejoin="round"><path stroke="url(#edgeViolet)" stroke-width="6.5" d="M516 78 792 388 848 553 670 916 517 988 360 821 238 532 362 268Z"/><path stroke="url(#edgeBlue)" stroke-width="3.25" d="M516 78 435 315 362 268M435 315 238 532M435 315 618 303 516 78M618 303 792 388M618 303 547 538M547 538 848 553M547 538 517 988M350 694 360 821M350 694 517 988M350 694 238 532" opacity=".72"/><path stroke="#2a2f75" stroke-width="2.4" d="M435 315 350 694 547 538 435 315M547 538 670 916M792 388 716 459" opacity=".45"/></g></g><g fill="none" stroke-linecap="round" stroke-linejoin="round"><path stroke="#4650dd" stroke-width="2.5" d="M350 694 547 538 517 988" opacity=".34"/><path stroke="#b9c4ff" stroke-width="2.4" d="M435 315 350 694" opacity=".42"/><path stroke="#b88440" stroke-width="2.1" d="M476 692 594 641M512 654 547 538" opacity=".46"/></g><g fill="none" stroke-linecap="round" stroke-linejoin="round" opacity=".72"><path stroke="#a9a0ff" stroke-width="2.2" d="M406 611 512 654 620 484" opacity=".84"/><path stroke="#ffd47b" stroke-width="2.5" d="M512 654 594 641" opacity=".92"/><path stroke="#d88c35" stroke-width="2.1" d="M594 641 655 589" opacity=".58"/><path stroke="#ffd47b" stroke-width="2.4" d="M476 692 512 654" opacity=".88"/><path stroke="#c77c2f" stroke-width="1.9" d="M476 692 394 754" opacity=".5"/><path stroke="#8f5929" stroke-width="1.7" d="M476 692 475 748" opacity=".32"/></g><g filter="url(#amberGlow)" opacity=".94"><path fill="url(#amberCore)" d="M511 612 544 632 544 670 511 690 478 670 478 632Z"/><path fill="none" stroke="#fff0a4" stroke-width="2" d="M511 612 511 690M478 632 544 670M544 632 478 670" opacity=".56"/></g><g filter="url(#violetGlow)" opacity=".72"><circle cx="406" cy="611" r="9" fill="url(#violetNode)"/><circle cx="620" cy="484" r="9" fill="url(#violetNode)"/><circle cx="650" cy="741" r="8" fill="url(#violetNode)"/></g><g filter="url(#amberGlow)"><circle cx="594" cy="641" r="9" fill="url(#amberNode)" opacity=".92"/><circle cx="476" cy="692" r="9" fill="url(#amberNode)" opacity=".9"/><circle cx="655" cy="589" r="10" fill="url(#amberNode)" opacity=".62"/><circle cx="394" cy="754" r="8" fill="url(#amberNode)" opacity=".52"/><circle cx="475" cy="748" r="9" fill="url(#amberNode)" opacity=".42"/></g><path stroke="#fff" stroke-linecap="round" stroke-width="5.5" d="M435 315 516 78" opacity=".68"/><path stroke="#8b55ff" stroke-linecap="round" stroke-width="4.5" d="M238 532 350 694" opacity=".66"/><path stroke="#f3f0ff" stroke-linecap="round" stroke-width="4.5" d="M792 388 848 553" opacity=".64"/><g fill="none" stroke-linecap="round" stroke-linejoin="round"><path stroke="#a6a2ff" stroke-width="3.8" d="M350 694 547 538" opacity=".84"/><path stroke="#9189ff" stroke-width="4.4" d="M547 538 517 988" opacity=".88"/></g></svg>